<svg width="131" height="113" viewBox="0 0 131 113" fill="none" xmlns="http://www.w3.org/2000/svg">
<g filter="url(#filter0_d_168_31195)">
<ellipse cx="32.4272" cy="14.0231" rx="32.4272" ry="14.0231" transform="matrix(-0.921441 0.388518 0.553341 0.832955 110.261 29.063)" fill="#F4F1E7"/>
<ellipse cx="19.2446" cy="10.1239" rx="19.2446" ry="10.1239" transform="matrix(-0.960617 0.277877 0.325056 0.945695 99.313 54.8257)" fill="#F4F1E7"/>
<ellipse cx="32.4272" cy="14.0231" rx="32.4272" ry="14.0231" transform="matrix(0.921441 0.388518 -0.553341 0.832955 20.5188 29.063)" fill="#F4F1E7"/>
<ellipse cx="19.2446" cy="10.1239" rx="19.2446" ry="10.1239" transform="matrix(0.960617 0.277877 -0.325056 0.945695 31.4673 54.8257)" fill="#F4F1E7"/>
<ellipse cx="65.5576" cy="74.5651" rx="19.0706" ry="22.0817" fill="#F9C03D"/>
<path d="M65.3918 102C50.4007 99.074 46.5423 82.7141 46.4871 74.8999H84.6282C82.1076 95.7821 70.7537 101.668 65.3918 102Z" fill="#F9C03D"/>
<mask id="mask0_168_31195" style="mask-type:alpha" maskUnits="userSpaceOnUse" x="46" y="52" width="39" height="50">
<ellipse cx="65.5576" cy="74.5651" rx="19.0706" ry="22.0817" fill="#FFD884"/>
<path d="M65.3918 102C50.4007 99.074 46.5423 82.7141 46.4871 74.8999H84.6282C82.1076 95.7821 70.7537 101.668 65.3918 102Z" fill="#FFD884"/>
</mask>
<g mask="url(#mask0_168_31195)">
<path d="M106.228 87.4461C106.228 95.0128 102.206 102.257 94.926 107.79C87.642 113.325 77.3359 116.909 65.7245 116.909C54.1131 116.909 43.8071 113.325 36.523 107.79C29.2431 102.257 25.2209 95.0128 25.2209 87.4461C25.2209 79.8795 29.2431 72.6354 36.523 67.1026C43.8071 61.5668 54.1131 57.9834 65.7245 57.9834C77.3359 57.9834 87.642 61.5668 94.926 67.1026C102.206 72.6354 106.228 79.8795 106.228 87.4461Z" stroke="#181818" stroke-width="11"/>
<path d="M106.228 104.844C106.228 112.411 102.206 119.655 94.926 125.188C87.642 130.723 77.3359 134.307 65.7245 134.307C54.1131 134.307 43.8071 130.723 36.523 125.188C29.2431 119.655 25.2209 112.411 25.2209 104.844C25.2209 97.2774 29.2431 90.0334 36.523 84.5006C43.8071 78.9647 54.1131 75.3813 65.7245 75.3813C77.3359 75.3813 87.642 78.9647 94.926 84.5006C102.206 90.0334 106.228 97.2774 106.228 104.844Z" stroke="#181818" stroke-width="11"/>
<path d="M106.228 121.907C106.228 129.474 102.206 136.718 94.926 142.251C87.642 147.786 77.3359 151.37 65.7245 151.37C54.1131 151.37 43.8071 147.786 36.523 142.251C29.2431 136.718 25.2209 129.474 25.2209 121.907C25.2209 114.34 29.2431 107.096 36.523 101.564C43.8071 96.0277 54.1131 92.4443 65.7245 92.4443C77.3359 92.4443 87.642 96.0277 94.926 101.564C102.206 107.096 106.228 114.34 106.228 121.907Z" stroke="#181818" stroke-width="11"/>
</g>
<path d="M55.1859 48.4683C46.9014 52.2043 34.25 62.5203 49.9203 73.8957" stroke="#504F4F" stroke-width="4" stroke-linecap="round"/>
<path d="M75.5946 48.1338C83.8791 51.8698 96.5305 62.1858 80.8602 73.5612" stroke="#504F4F" stroke-width="4" stroke-linecap="round"/>
<ellipse cx="65.725" cy="45.9592" rx="13.5501" ry="6.52414" fill="#754A32"/>
<ellipse cx="65.725" cy="52.9851" rx="13.5501" ry="6.52414" fill="#754A32"/>
<circle cx="65.5575" cy="32.0746" r="12.7137" fill="#F9C03D"/>
<ellipse cx="3.45435" cy="5.14109" rx="3.45435" ry="5.14109" transform="matrix(0.950865 -0.309607 0.333006 0.942925 67.8064 26.2886)" fill="#181818"/>
<ellipse cx="3.45435" cy="5.14109" rx="3.45435" ry="5.14109" transform="matrix(-0.950865 -0.309607 -0.333006 0.942925 63.5059 26.2886)" fill="#181818"/>
<ellipse cx="65.5573" cy="36.4238" rx="2.342" ry="1.67286" fill="#181818"/>
<path d="M63.1763 22.0369C63.4536 19.4855 62.3776 14.0399 55.8547 12.6689" stroke="#504F4F" stroke-width="3" stroke-linecap="round"/>
<ellipse cx="55.1859" cy="13.171" rx="2.00743" ry="1.171" fill="#504F4F"/>
<path d="M67.9382 22.0369C67.6609 19.4855 68.7369 14.0399 75.2598 12.6689" stroke="#504F4F" stroke-width="3" stroke-linecap="round"/>
<ellipse cx="2.00743" cy="1.171" rx="2.00743" ry="1.171" transform="matrix(-1 0 0 1 77.9365 12)" fill="#504F4F"/>
</g>
<defs>
<filter id="filter0_d_168_31195" x="0.760742" y="0.168457" width="129.259" height="112.832" filterUnits="userSpaceOnUse" color-interpolation-filters="sRGB">
<feFlood flood-opacity="0" result="BackgroundImageFix"/>
<feColorMatrix in="SourceAlpha" type="matrix" values="0 0 0 0 0 0 0 0 0 0 0 0 0 0 0 0 0 0 127 0" result="hardAlpha"/>
<feOffset/>
<feGaussianBlur stdDeviation="5.5"/>
<feComposite in2="hardAlpha" operator="out"/>
<feColorMatrix type="matrix" values="0 0 0 0 0.395833 0 0 0 0 0.395833 0 0 0 0 0.395833 0 0 0 0.2 0"/>
<feBlend mode="normal" in2="BackgroundImageFix" result="effect1_dropShadow_168_31195"/>
<feBlend mode="normal" in="SourceGraphic" in2="effect1_dropShadow_168_31195" result="shape"/>
</filter>
</defs>
</svg>
